<svg xmlns="http://www.w3.org/2000/svg" viewBox="0 0 64 64" width="64" height="64">
  <!-- Background Circle -->
  <circle cx="32" cy="32" r="32" fill="url(#bgGradient)"/>
  
  <!-- Gradient Definition -->
  <defs>
    <linearGradient id="bgGradient" x1="0%" y1="0%" x2="100%" y2="100%">
      <stop offset="0%" style="stop-color:#2563eb;stop-opacity:1" />
      <stop offset="100%" style="stop-color:#7c3aed;stop-opacity:1" />
    </linearGradient>
    <linearGradient id="paperGradient" x1="0%" y1="0%" x2="0%" y2="100%">
      <stop offset="0%" style="stop-color:#ffffff;stop-opacity:1" />
      <stop offset="100%" style="stop-color:#f1f5f9;stop-opacity:1" />
    </linearGradient>
  </defs>
  
  <!-- Newspaper Icon -->
  <g transform="translate(14, 16)">
    <!-- Main paper body -->
    <rect x="2" y="2" width="32" height="30" rx="2" fill="url(#paperGradient)" stroke="#e2e8f0" stroke-width="1"/>
    
    <!-- Headline bar -->
    <rect x="5" y="5" width="26" height="4" rx="1" fill="#2563eb" opacity="0.9"/>
    
    <!-- Text lines -->
    <rect x="5" y="12" width="16" height="2" rx="1" fill="#64748b" opacity="0.7"/>
    <rect x="5" y="16" width="20" height="2" rx="1" fill="#64748b" opacity="0.5"/>
    <rect x="5" y="20" width="18" height="2" rx="1" fill="#64748b" opacity="0.5"/>
    
    <!-- Column divider -->
    <line x1="18" y1="12" x2="18" y2="28" stroke="#e2e8f0" stroke-width="1"/>
    
    <!-- Right column lines -->
    <rect x="20" y="12" width="10" height="2" rx="1" fill="#64748b" opacity="0.5"/>
    <rect x="20" y="16" width="8" height="2" rx="1" fill="#64748b" opacity="0.4"/>
    <rect x="20" y="20" width="9" height="2" rx="1" fill="#64748b" opacity="0.4"/>
    
    <!-- Bottom section -->
    <rect x="5" y="25" width="26" height="2" rx="1" fill="#7c3aed" opacity="0.3"/>
    <rect x="5" y="28" width="22" height="1.5" rx="0.75" fill="#64748b" opacity="0.3"/>
  </g>
  
  <!-- Sparkle effect (AI indicator) -->
  <g transform="translate(44, 12)">
    <circle cx="0" cy="0" r="2" fill="#fbbf24" opacity="0.9"/>
    <path d="M 0,-4 L 0.5,-1 L 0,0 L -0.5,-1 Z" fill="#fbbf24"/>
    <path d="M -4,0 L -1,0.5 L 0,0 L -1,-0.5 Z" fill="#fbbf24"/>
  </g>
  
  <g transform="translate(48, 20)">
    <circle cx="0" cy="0" r="1.5" fill="#fbbf24" opacity="0.7"/>
    <path d="M 0,-3 L 0.4,-0.8 L 0,0 L -0.4,-0.8 Z" fill="#fbbf24" opacity="0.8"/>
  </g>
</svg>